<svg xmlns="http://www.w3.org/2000/svg" width="1007" height="351.1"><defs><clipPath id="a"><path d="M0 263.3h755.3V0H0z"/></clipPath></defs><g clip-path="url(#a)" transform="matrix(1.33333 0 0 -1.33333 0 351)"><path d="M62.6 139.3h18.7c4.7 0 8.4.4 11.3 1.3 2.9.9 5.1 2 6.8 3.3 1.6 1.3 2.6 2.7 3.2 4.2.6 1.5.9 3 .9 4.1 0 1.3-.3 2.7-.9 4.2-.6 1.5-1.6 2.9-3.2 4.2a20 20 0 0 1-6.8 3.3c-2.9.9-6.6 1.3-11.3 1.3H62.6zm-8.8 32.1h24.9a172.6 172.6 0 0 0 12-.7c2.5-.4 5-1 7.6-1.7 2.6-.7 4.9-1.8 7-3.3a18 18 0 0 0 5-5.4c1.3-2.2 2-4.9 2-8a15 15 0 0 0-2.3-8.7 18.6 18.6 0 0 0-6-5.5c-2.3-1.4-4.9-2.5-7.7-3.2-2.9-.6-5.6-1.1-8.2-1.4l27.5-35h-10L79.1 133H62.6V98.5h-8.8zM166.1 164l-22-40h43.4zm-4.1 7.4h9l39.8-73H201l-10.3 19.4h-50l-10.8-19.3h-9.2zM291.6 127.5c0-3.8-.6-7.5-1.7-11-1.2-3.5-3.1-6.5-5.8-9.2a29.2 29.2 0 0 0-10.7-6.5 47.6 47.6 0 0 0-16.2-2.4c-6.5 0-11.9.8-16.3 2.4-4.4 1.7-8 3.8-10.6 6.5a23 23 0 0 0-5.9 9.2 34.5 34.5 0 0 0-1.7 11v44h8.8v-42.3c0-2.5.3-5.3 1-8.1.6-3 1.8-5.6 3.6-8 1.9-2.6 4.4-4.6 7.8-6.2 3.3-1.6 7.7-2.4 13.3-2.4 5.5 0 9.9.8 13.2 2.4A20.3 20.3 0 0 1 282 121c.6 2.8.9 5.6.9 8.1v42.3h8.8zM314.8 171.4H328l34.5-61.2 34.4 61.2h12.6v-73h-8.8v64.4h-.3l-36-64.3h-4L324 162.8h-.3V98.5h-8.8z" fill="#009ee3"/><path d="M432 171.4h63.3v-14.8h-42.6v-14.9h39.4V127h-39.4V98.5H432zM531.1 141.2h12.3c1.9 0 3.8 0 6 .2 2 0 4 .4 5.6 1 1.7.4 3.1 1.2 4.2 2.3a6.2 6.2 0 0 1 1.7 4.7c0 1.8-.5 3.3-1.5 4.4-1 1-2.2 2-3.7 2.5-1.5.6-3.3 1-5.2 1.2l-5.8.3h-13.6zm-20.8 30.2h36.6a83 83 0 0 0 13.6-1c4.4-.8 8.1-2 11.4-3.7 3.2-1.7 5.8-4 7.7-6.8 2-2.8 3-6.4 3-10.6 0-5.2-1.8-9.6-5.3-13.2a25.4 25.4 0 0 0-15.2-6.8l24-30.8h-25l-19.7 29.1H531V98.5h-20.8zM597.6 171.4h64.2v-14.8h-43.4V143h41V128h-41v-14.8h45.8V98.5h-66.6zM680.6 171.4h20.9v-73h-20.9zM53.9 74.8h63.4V60H74.7V45h39.4V30.3H74.7V1.9H54zM153 44.6h12.4c1.8 0 3.8 0 6 .2 2 0 3.9.4 5.6.9 1.7.5 3 1.3 4.2 2.4a6.2 6.2 0 0 1 1.7 4.6c0 1.9-.5 3.4-1.5 4.5-1 1-2.2 2-3.8 2.5-1.5.6-3.2 1-5.2 1.2l-5.7.3h-13.6zm-20.7 30.2h36.5a83 83 0 0 0 13.7-1c4.3-.8 8.1-2 11.4-3.7 3.2-1.7 5.8-4 7.7-6.8 2-2.8 2.9-6.4 2.9-10.7 0-5.1-1.8-9.5-5.2-13a25.5 25.5 0 0 0-15.2-7L208 2h-25L163.4 31H153V2h-20.8zM219.6 74.8h64.2V60h-43.4V46.4h41V31.5h-41V16.7h45.8V1.9h-66.6zM302.6 74.8h20.8v-73h-20.8z" fill="#f9b232"/><path d="M354.5 42.6h18.7c4.7 0 8.4.5 11.3 1.4 3 .9 5.2 2 6.8 3.3 1.6 1.3 2.6 2.7 3.2 4.2.6 1.5.9 2.9.9 4.1 0 1.3-.3 2.6-.9 4.2-.6 1.5-1.6 2.9-3.2 4.2a20 20 0 0 1-6.8 3.3c-2.9.9-6.6 1.3-11.3 1.3h-18.7zm-8.8 32.2h24.9a172.5 172.5 0 0 0 12-.7c2.5-.4 5-1 7.6-1.7 2.6-.7 4.9-1.8 7-3.3a18 18 0 0 0 5-5.4c1.3-2.2 2-5 2-8A15 15 0 0 0 402 47a18.7 18.7 0 0 0-5.9-5.5c-2.4-1.4-5-2.5-7.8-3.2-2.9-.7-5.6-1.1-8.2-1.4l27.5-35h-10L371 36.5h-16.5V1.9h-8.8zM458 67.4l-22-40h43.4zm-4.1 7.4h9l39.8-73H493l-10.3 19.4h-50L421.7 2h-9.2zM583.5 29.8c0-4-.6-7.7-1.7-11.3-1.2-3.5-3.1-6.7-5.8-9.4a29 29 0 0 0-10.7-6.6A46.6 46.6 0 0 0 549 0c-6.4 0-11.9.8-16.3 2.5A29 29 0 0 0 522.2 9c-2.8 2.7-4.7 5.9-5.8 9.4a36.1 36.1 0 0 0-1.8 11.3v45h8.8V31.5c0-2.6.3-5.4 1-8.3a20.4 20.4 0 0 1 11.4-14.5C539 7 543.5 6.2 549 6.2c5.5 0 10 .8 13.2 2.5a20.4 20.4 0 0 1 11.5 14.5c.6 3 .9 5.7.9 8.3v43.3h8.8zM606.7 74.8H620l34.4-61.2 34.4 61.2h12.6v-73h-8.8v64.3h-.3L656.3 2h-4L615.9 66h-.3V2h-8.8z" fill="#009ee3"/><path d="M755.3 209.7l-377.7 53.6L0 209.7 2 189l375.6 53.4L753.2 189z" fill="#f9b232"/></g></svg>